<svg width="40" height="8" viewBox="0 0 40 8" fill="none" xmlns="http://www.w3.org/2000/svg">
    <g clip-path="url(#clip0_103_2)">
        <path d="M40 4L32 4L30.0604 0.120893C30.0397 0.0793738 29.9785 0.086093 29.9672 0.131127L28.0049 7.9806C28.0036 7.98565 27.9964 7.98565 27.9951 7.9806L26.0049 0.0194029C26.0036 0.0143531 25.9964 0.0143537 25.9951 0.0194035L24.0049 7.9806C24.0036 7.98565 23.9964 7.98565 23.9951 7.9806L22.0049 0.0194029C22.0036 0.0143531 21.9964 0.0143537 21.9951 0.0194035L20.0049 7.9806C20.0036 7.98565 19.9964 7.98565 19.9951 7.9806L18.0049 0.0194029C18.0036 0.0143531 17.9964 0.0143537 17.9951 0.0194035L16.0049 7.9806C16.0036 7.98565 15.9964 7.98565 15.9951 7.9806L14.0049 0.0194029C14.0036 0.0143531 13.9964 0.0143537 13.9951 0.0194035L12.0033 7.98689C12.0022 7.99139 11.996 7.99206 11.994 7.98791L10 4H0" stroke="white" stroke-width="0.2"/>
    </g>
    <defs>
        <clipPath id="clip0_103_2">
            <rect width="40" height="8" fill="white"/>
        </clipPath>
    </defs>
</svg>
